<svg id="Layer_1" data-name="Layer 1" xmlns="http://www.w3.org/2000/svg" viewBox="0 0 230.65 99.72"><defs><style>.cls-1,.cls-3,.cls-4{fill:#fff;}.cls-2{fill:#f37321;}.cls-3,.cls-5{fill-rule:evenodd;}.cls-4{stroke:#fff;stroke-miterlimit:10;stroke-width:1.26px;}</style></defs><path class="cls-1" d="M59.45,57.19H46.91s-7.66-1.92-8-9.83A15.33,15.33,0,0,1,40.53,39c1.14-2.37.73-6.56-1.82-8.57L24.49,19s-4.74,9.11,9.3,17.5A19.44,19.44,0,0,0,32,52.32c2.92,8.75,8.94,11.31,15.86,11.95H59.45Z"/><path class="cls-2" d="M22.12,17.5,0,0S.49,10.27,7.41,14.52s13.62,9,13.62,9A40.07,40.07,0,0,1,22.12,17.5Z"/><path class="cls-2" d="M25.1,33.6A32.4,32.4,0,0,1,21.63,27L1.88,16.53s1.4,7.9,10.39,12.15S25.1,33.6,25.1,33.6Z"/><path class="cls-2" d="M29.59,37.92,5,30.57a21,21,0,0,0,12.7,9.9c9.3,2.74,10.76,2,10.76,2S29,38.65,29.59,37.92Z"/><path class="cls-2" d="M28.32,45.51,7.6,42.84s5.34,6.32,12,6.56a71.53,71.53,0,0,0,8.87,0Z"/><path class="cls-2" d="M29.17,52.2,10.88,53.78a14.37,14.37,0,0,0,10.63,3.89c6.93-.18,9.48-1,9.48-1Z"/><path class="cls-2" d="M32.33,59.19,18.05,64.27s5.22,2.51,9.9,1.3a16.57,16.57,0,0,0,7-3.47Z"/><path class="cls-2" d="M37.19,64.27l-9.78,7.86s5.16,1.34,8.14-1.09a24.83,24.83,0,0,0,4.86-5.47A25.38,25.38,0,0,1,37.19,64.27Z"/><path class="cls-2" d="M43.51,66.48c-.12.24-3.1,10.51-3.1,10.51s4-1.27,5-4.49a17.83,17.83,0,0,0,.79-5.78Z"/><path class="cls-2" d="M49.19,66.78,48.55,77s3.16-2.12,3.71-4.49a17.51,17.51,0,0,0,0-5.72Z"/><path class="cls-2" d="M54.82,67.43,56.57,75s2.09-2.09,2.11-4.35a8,8,0,0,0-1.17-4.06h-2.9Z"/><path class="cls-1" d="M177.73,57.19h6s7.66-1.92,8-9.83A15.4,15.4,0,0,0,190.12,39c-1.14-2.37-.73-6.56,1.82-8.57L206.16,19s4.74,9.11-9.3,17.5a19.44,19.44,0,0,1,1.83,15.86c-2.92,8.75-8.94,11.31-15.86,11.95h-5.1Z"/><path class="cls-2" d="M208.53,17.5,230.65,0s-.49,10.27-7.41,14.52-13.61,9-13.61,9A40.39,40.39,0,0,0,208.53,17.5Z"/><path class="cls-2" d="M205.55,33.6A32.4,32.4,0,0,0,209,27l19.75-10.51s-1.4,7.9-10.39,12.15S205.55,33.6,205.55,33.6Z"/><path class="cls-2" d="M201.06,37.92l24.55-7.35a21,21,0,0,1-12.7,9.9c-9.3,2.74-10.76,2-10.76,2S201.66,38.65,201.06,37.92Z"/><path class="cls-2" d="M202.33,45.51l20.72-2.67s-5.34,6.32-12,6.56a71.53,71.53,0,0,1-8.87,0Z"/><path class="cls-2" d="M201.48,52.2l18.29,1.58a14.37,14.37,0,0,1-10.63,3.89c-6.93-.18-9.48-1-9.48-1Z"/><path class="cls-2" d="M198.32,59.19l14.28,5.08s-5.22,2.51-9.9,1.3a16.57,16.57,0,0,1-7-3.47Z"/><path class="cls-2" d="M193.46,64.27l9.78,7.86s-5.16,1.34-8.14-1.09a24.83,24.83,0,0,1-4.86-5.47A25.38,25.38,0,0,0,193.46,64.27Z"/><path class="cls-2" d="M187.14,66.48c.12.24,3.1,10.51,3.1,10.51s-4-1.27-5-4.49a17.83,17.83,0,0,1-.79-5.78Z"/><path class="cls-2" d="M181.46,66.78,182.1,77s-3.16-2.12-3.71-4.49a17.51,17.51,0,0,1,0-5.72Z"/><path class="cls-2" d="M49.22,83h6.42v2.3H53.72l2.13,9.39A11.23,11.23,0,0,1,56,96.1h.1a10.17,10.17,0,0,1,.25-1.44L59.47,83H61.9L65,94.66a10.17,10.17,0,0,1,.25,1.44h.1a11.23,11.23,0,0,1,.18-1.44l2.14-9.39H65.73V83h6.43v2.3H70.65l-3.5,14.17H63.74L61,89.05a9.43,9.43,0,0,1-.26-1.51h-.07a10.16,10.16,0,0,1-.25,1.51L57.63,99.44h-3.4L50.72,85.27h-1.5Z"/><path class="cls-2" d="M71.74,97.17h1.51L78.19,83h3.46l4.94,14.2h1.5v2.27H81.9V97.17h1.63l-1-3.09h-5.2l-1,3.09h1.62v2.27H71.74Zm10.07-5.45-1.55-4.66A7.2,7.2,0,0,1,80,85.62h-.07a10.13,10.13,0,0,1-.3,1.44L78,91.72Z"/><path class="cls-2" d="M89.54,97.17h2V85.27h-2V83H96.8a10.75,10.75,0,0,1,3.13.35,4.31,4.31,0,0,1,3,4.41,4.55,4.55,0,0,1-3.11,4.57v0a2.2,2.2,0,0,1,.81.86l1.9,3.43a1.07,1.07,0,0,0,1.11.54h.54v2.27h-1.93c-1.37,0-1.78-.28-2.29-1.23L97.65,94c-.34-.63-.64-.84-1.6-.84h-1.5v4h1.9v2.27H89.54Zm7.74-6.47A2.46,2.46,0,0,0,99.93,88a2.24,2.24,0,0,0-1.3-2.27,4.64,4.64,0,0,0-1.86-.3H94.55V90.7Z"/><path class="cls-2" d="M106.05,97.17h2V85.27h-2V83h7.26a10.78,10.78,0,0,1,3.14.35,4.3,4.3,0,0,1,3,4.41,4.54,4.54,0,0,1-3.1,4.57v0a2.28,2.28,0,0,1,.81.86l1.9,3.43a1.07,1.07,0,0,0,1.11.54h.54v2.27h-1.93c-1.37,0-1.78-.28-2.3-1.23L114.17,94c-.35-.63-.65-.84-1.6-.84h-1.51v4H113v2.27h-6.92Zm7.75-6.47A2.46,2.46,0,0,0,116.45,88a2.24,2.24,0,0,0-1.3-2.27,4.64,4.64,0,0,0-1.86-.3h-2.23V90.7Z"/><path class="cls-2" d="M122.57,97.17h2V85.27h-2V83h7v2.3h-2v11.9h2v2.27h-7Z"/><path class="cls-2" d="M140.13,82.69a8.33,8.33,0,0,1,8.54,8.4,8.54,8.54,0,1,1-17.07,0A8.32,8.32,0,0,1,140.13,82.69Zm0,14.36a5.66,5.66,0,0,0,5.41-6,5.41,5.41,0,1,0-10.81,0C134.73,94.48,137.16,97.05,140.13,97.05Z"/><path class="cls-2" d="M150.67,97.17h2V85.27h-2V83h7.26a10.75,10.75,0,0,1,3.13.35,4.31,4.31,0,0,1,3,4.41A4.55,4.55,0,0,1,161,92.3v0a2.2,2.2,0,0,1,.81.86l1.9,3.43a1.09,1.09,0,0,0,1.12.54h.53v2.27h-1.92c-1.37,0-1.79-.28-2.3-1.23L158.79,94c-.35-.63-.65-.84-1.6-.84h-1.51v4h1.9v2.27h-6.91Zm7.75-6.47A2.46,2.46,0,0,0,161.06,88a2.22,2.22,0,0,0-1.3-2.27,4.58,4.58,0,0,0-1.85-.3h-2.23V90.7Z"/><path class="cls-2" d="M169.9,94.13v1.23c0,1.07,1.35,1.69,2.9,1.69s2.85-.72,2.85-2c0-1.67-1.88-2.2-3.78-2.94-2.2-.84-4.36-1.84-4.36-4.78,0-3.32,2.69-4.6,5.52-4.6,2.6,0,5.22,1,5.22,2.9v2.16h-2.76V86.64c0-.84-1.23-1.28-2.46-1.28s-2.46.56-2.46,1.81c0,1.51,1.53,2,3.25,2.69,2.46.88,4.92,1.86,4.92,4.94,0,3.37-2.83,4.92-5.94,4.92-2.74,0-5.66-1.23-5.66-3.71V94.13Z"/><path class="cls-1" d="M96.94,40.16c11,0,19,8.11,19,18.49a19,19,0,0,1-38.09,0C77.9,48.27,85.9,40.16,96.94,40.16Zm0,29.59c5.32,0,9.68-4.76,9.68-11.1,0-6.08-4.36-10.63-9.68-10.63s-9.67,4.55-9.67,10.63C87.27,65,91.63,69.75,96.94,69.75Z"/><path class="cls-1" d="M112.69,70.41h3l9.88-29.64H135.9l9.87,29.64h3V77H133.62V70.41h3.14l-1.37-4.82h-9.32l-1.37,4.82h3.14V77H112.69ZM133.41,58.7,131.54,52a21,21,0,0,1-.71-3.8h-.2a21,21,0,0,1-.71,3.8L128,58.7Z"/><path class="cls-1" d="M76.63,70.41a2.29,2.29,0,0,1-2.33-1.17l-2.79-5.37a5,5,0,0,0-2.22-2.18v-.1a10.61,10.61,0,0,0,5.87-9.93c0-5.32-2.89-8.86-7.24-10.18a26.37,26.37,0,0,0-7.25-.71H44.31v6.59h4V54.3h9.07V47.86h3.24a8.11,8.11,0,0,1,3.5.61c1.57.76,2,2.33,2,4,0,3.3-1.78,4.71-4.61,4.71h-3v7.1h.68c1.87,0,2.53.4,3.14,1.57l4.4,8.46c1,2,2.18,2.68,5.12,2.68H94.18V70.41Z"/><path class="cls-3" d="M125.57,29.43a13,13,0,0,0,1-5.28,7.38,7.38,0,0,0-3.28-6l-5.1,8.13-5.09-8.13a7.38,7.38,0,0,0-3.28,6,13,13,0,0,0,1,5.28c.37.69-.53,1.17-.44,1.55.35,1.41,2.45,2.36,2.88,2.37s.66-.57,1.33,0,0,1,.12,1.56,1.74.71,3.5.71,3.38-.31,3.5-.71-.45-1.06.13-1.56.9,0,1.33,0,2.53-1,2.88-2.37C126.1,30.6,125.19,30.12,125.57,29.43Zm-9.92.49c-1,.37-2.43.59-3,0a2.55,2.55,0,0,1,0-2.53,4.4,4.4,0,0,1,2.88-1,1.4,1.4,0,0,1,1.23,1A2.68,2.68,0,0,1,117,29C116.81,29.32,116.68,29.55,115.65,29.92Zm2.52,3.43c-.65,0-1.17-.24-1.22-1.37,0-1.4.8-2.73,1.22-2.73s1.28,1.33,1.23,2.73C119.35,33.11,118.83,33.35,118.17,33.35Zm5.51-3.43c-.56.59-2,.37-3,0s-1.16-.6-1.31-1a2.6,2.6,0,0,1,.21-1.56,1.39,1.39,0,0,1,1.22-1,4.43,4.43,0,0,1,2.89,1A2.55,2.55,0,0,1,123.68,29.92Z"/><path class="cls-3" d="M122.72,17.76A8.85,8.85,0,0,0,119,16.57L118,26.7l6.06-8Z"/><path class="cls-3" d="M117.4,16.57a8.8,8.8,0,0,0-3.77,1.19l-.55.36,5.09,8.75.78-10.3Z"/><line class="cls-4" x1="132.72" y1="28.65" x2="165.26" y2="28.65"/><line class="cls-4" x1="71.92" y1="28.65" x2="104.46" y2="28.65"/><path class="cls-3" d="M124.39,21.92s2.18-2,1.79-6S124,10,124,10s1.08,2.31-.33,3.38-3.28.62-3.28-1.63,1.7-5,1.58-6.32-.34-2.76-1.58-3.5c0,0,.58,4-1.49,4.4S116.53,4,116.53,4a5.11,5.11,0,0,0-.45,3c.22,1.8,1,3.5.39,4.63s-.79,1.46-1.52.67a3.71,3.71,0,0,1-.8-2.82s-2.92,2.88-2.58,5.3.56,2.37.56,3.25-1.3,1.71-1.86,0c0,0-1,3.36,2.31,4.43a5.44,5.44,0,0,0,5.59-1.64Z"/><path class="cls-5" d="M187.35,65S185,75,175,77V69.75l6.18-6.2Z"/><path class="cls-1" d="M148.15,70.41h6.26v-23h-4V40.77h15.95a26.47,26.47,0,0,1,7.45.76c7.19,2,12.16,8.26,12.16,17.33,0,8.3-4.26,14.48-10.89,16.92A24.66,24.66,0,0,1,166.36,77H148.15Zm18-.51a12.36,12.36,0,0,0,5.52-1c3.09-1.57,4.92-5.17,4.92-10,0-5.37-2.23-8.87-5.58-10.29a12,12,0,0,0-4.86-.76h-2.63v22Z"/></svg>