<svg id="Layer_1" data-name="Layer 1" xmlns="http://www.w3.org/2000/svg" viewBox="0 0 230.32 99.58"><defs><style>.cls-1,.cls-3{fill:#231f20;}.cls-2{fill:#f37321;}.cls-3{fill-rule:evenodd;}.cls-4{fill:#be3727;}</style></defs><path class="cls-1" d="M59.53,57.32H47s-7.65-1.92-8-9.82a15.34,15.34,0,0,1,1.64-8.33c1.14-2.37.73-6.56-1.82-8.56L24.62,19.14s-4.73,9.11,9.28,17.48a19.41,19.41,0,0,0-1.82,15.84C35,61.19,41,63.75,47.92,64.39H59.53Z" transform="translate(-0.16 -0.21)"/><path class="cls-2" d="M22.25,17.69.16.21s.49,10.26,7.41,14.5,13.59,9,13.59,9A41,41,0,0,1,22.25,17.69Z" transform="translate(-0.16 -0.21)"/><path class="cls-2" d="M25.23,33.77a32.05,32.05,0,0,1-3.46-6.56L2.05,16.72S3.44,24.6,12.42,28.85,25.23,33.77,25.23,33.77Z" transform="translate(-0.16 -0.21)"/><path class="cls-2" d="M29.72,38.08,5.2,30.73a20.92,20.92,0,0,0,12.68,9.89c9.29,2.73,10.74,2,10.74,2S29.11,38.8,29.72,38.08Z" transform="translate(-0.16 -0.21)"/><path class="cls-2" d="M28.44,45.66,7.75,43s5.34,6.31,12,6.55a71.29,71.29,0,0,0,8.86,0Z" transform="translate(-0.16 -0.21)"/><path class="cls-2" d="M29.29,52.34,11,53.91A14.36,14.36,0,0,0,21.65,57.8c6.91-.19,9.46-1,9.46-1Z" transform="translate(-0.16 -0.21)"/><path class="cls-2" d="M32.45,59.31,18.19,64.39s5.22,2.51,9.89,1.29a16.56,16.56,0,0,0,7-3.45Z" transform="translate(-0.16 -0.21)"/><path class="cls-2" d="M37.3,64.39l-9.77,7.85s5.16,1.33,8.13-1.09a24.83,24.83,0,0,0,4.86-5.47A25,25,0,0,1,37.3,64.39Z" transform="translate(-0.16 -0.21)"/><path class="cls-2" d="M43.61,66.6c-.12.24-3.09,10.49-3.09,10.49s4-1.27,5-4.49a17.69,17.69,0,0,0,.79-5.76Z" transform="translate(-0.16 -0.21)"/><path class="cls-2" d="M49.29,66.9l-.64,10.19S51.8,75,52.35,72.6a17.41,17.41,0,0,0,0-5.7Z" transform="translate(-0.16 -0.21)"/><path class="cls-2" d="M54.91,67.54l1.74,7.56s2.09-2.08,2.11-4.34a8,8,0,0,0-1.17-4.05h-2.9Z" transform="translate(-0.16 -0.21)"/><path class="cls-1" d="M177.64,57.32h6s7.65-1.92,8-9.82A15.34,15.34,0,0,0,190,39.17c-1.14-2.37-.73-6.56,1.82-8.56L206,19.14s4.73,9.11-9.28,17.48a19.41,19.41,0,0,1,1.82,15.84c-2.91,8.73-8.92,11.29-15.84,11.93h-5.09Z" transform="translate(-0.16 -0.21)"/><path class="cls-2" d="M208.4,17.69,230.49.21s-.49,10.26-7.41,14.5-13.59,9-13.59,9A41,41,0,0,0,208.4,17.69Z" transform="translate(-0.16 -0.21)"/><path class="cls-2" d="M205.43,33.77a32.25,32.25,0,0,0,3.45-6.56L228.6,16.72s-1.39,7.88-10.37,12.13S205.43,33.77,205.43,33.77Z" transform="translate(-0.16 -0.21)"/><path class="cls-2" d="M200.93,38.08l24.52-7.35a20.92,20.92,0,0,1-12.68,9.89c-9.29,2.73-10.74,2-10.74,2S201.54,38.8,200.93,38.08Z" transform="translate(-0.16 -0.21)"/><path class="cls-2" d="M202.21,45.66,222.9,43s-5.34,6.31-12,6.55a71.29,71.29,0,0,1-8.86,0Z" transform="translate(-0.16 -0.21)"/><path class="cls-2" d="M201.36,52.34l18.26,1.57A14.35,14.35,0,0,1,209,57.8c-6.92-.19-9.47-1-9.47-1Z" transform="translate(-0.16 -0.21)"/><path class="cls-2" d="M198.2,59.31l14.26,5.08s-5.21,2.51-9.89,1.29a16.56,16.56,0,0,1-7-3.45Z" transform="translate(-0.16 -0.21)"/><path class="cls-2" d="M193.35,64.39l9.77,7.85S198,73.57,195,71.15a24.83,24.83,0,0,1-4.86-5.47A25,25,0,0,0,193.35,64.39Z" transform="translate(-0.16 -0.21)"/><path class="cls-2" d="M49.31,83.07h6.42v2.29H53.8l2.13,9.38a12,12,0,0,1,.19,1.43h.09a9.17,9.17,0,0,1,.26-1.43l3.08-11.67H62l3.08,11.67a8.55,8.55,0,0,1,.25,1.43h.1a11,11,0,0,1,.18-1.43l2.13-9.38H65.8V83.07h6.42v2.29H70.71l-3.5,14.15h-3.4L61.05,89.13a10.13,10.13,0,0,1-.25-1.5h-.07a9.4,9.4,0,0,1-.26,1.5L57.72,99.51H54.31L50.82,85.36H49.31Z" transform="translate(-0.16 -0.21)"/><path class="cls-2" d="M71.81,97.24h1.5l4.93-14.17h3.45l4.94,14.17h1.5v2.27H82V97.24h1.62l-1-3.08H77.36l-1,3.08H78v2.27H71.81Zm10-5.44-1.55-4.66A7,7,0,0,1,80,85.71h-.07a8.46,8.46,0,0,1-.3,1.43L78.06,91.8Z" transform="translate(-0.16 -0.21)"/><path class="cls-2" d="M89.57,97.24h2V85.36h-2V83.07h7.25a10.73,10.73,0,0,1,3.13.34,4.31,4.31,0,0,1,3,4.4,4.53,4.53,0,0,1-3.1,4.57v0a2.2,2.2,0,0,1,.81.86l1.9,3.43a1.08,1.08,0,0,0,1.11.53h.53v2.27h-1.92c-1.36,0-1.78-.28-2.29-1.23L97.68,94c-.35-.62-.65-.83-1.6-.83h-1.5v4h1.9v2.27H89.57Zm7.74-6.46A2.45,2.45,0,0,0,100,88.07a2.22,2.22,0,0,0-1.3-2.27,4.58,4.58,0,0,0-1.85-.3H94.58v5.28Z" transform="translate(-0.16 -0.21)"/><path class="cls-2" d="M106.07,97.24h2V85.36h-2V83.07h7.25a10.66,10.66,0,0,1,3.12.34,4.31,4.31,0,0,1,3,4.4,4.54,4.54,0,0,1-3.11,4.57v0a2.26,2.26,0,0,1,.82.86l1.89,3.43a1.1,1.1,0,0,0,1.12.53h.53v2.27h-1.92c-1.37,0-1.79-.28-2.3-1.23L114.17,94c-.34-.62-.64-.83-1.59-.83h-1.51v4H113v2.27h-6.9Zm7.73-6.46a2.45,2.45,0,0,0,2.64-2.71,2.22,2.22,0,0,0-1.29-2.27,4.64,4.64,0,0,0-1.86-.3h-2.22v5.28Z" transform="translate(-0.16 -0.21)"/><path class="cls-2" d="M122.56,97.24h2V85.36h-2V83.07h7v2.29h-2V97.24h2v2.27h-7Z" transform="translate(-0.16 -0.21)"/><path class="cls-2" d="M140.1,82.79a8.31,8.31,0,0,1,8.52,8.38,8.53,8.53,0,1,1-17.05,0A8.31,8.31,0,0,1,140.1,82.79Zm0,14.33c3,0,5.39-2.57,5.39-6a5.4,5.4,0,1,0-10.79,0A5.64,5.64,0,0,0,140.1,97.12Z" transform="translate(-0.16 -0.21)"/><path class="cls-2" d="M150.62,97.24h2V85.36h-2V83.07h7.25a10.66,10.66,0,0,1,3.12.34,4.31,4.31,0,0,1,3,4.4,4.54,4.54,0,0,1-3.11,4.57v0a2.26,2.26,0,0,1,.82.86l1.89,3.43a1.1,1.1,0,0,0,1.12.53h.53v2.27h-1.92c-1.37,0-1.79-.28-2.3-1.23L158.72,94c-.34-.62-.64-.83-1.59-.83h-1.51v4h1.9v2.27h-6.9Zm7.73-6.46A2.45,2.45,0,0,0,161,88.07a2.22,2.22,0,0,0-1.29-2.27,4.64,4.64,0,0,0-1.86-.3h-2.22v5.28Z" transform="translate(-0.16 -0.21)"/><path class="cls-2" d="M169.82,94.21v1.22c0,1.07,1.35,1.69,2.9,1.69s2.85-.71,2.85-2c0-1.67-1.88-2.2-3.78-3-2.2-.83-4.35-1.82-4.35-4.77,0-3.31,2.68-4.58,5.51-4.58,2.59,0,5.21,1,5.21,2.89v2.16H175.4V86.72c0-.83-1.22-1.27-2.45-1.27s-2.46.56-2.46,1.81c0,1.5,1.53,2,3.25,2.68,2.45.88,4.91,1.86,4.91,4.94,0,3.36-2.83,4.91-5.93,4.91-2.74,0-5.65-1.23-5.65-3.71V94.21Z" transform="translate(-0.16 -0.21)"/><path class="cls-1" d="M97,40.32c11,0,19,8.09,19,18.46a19,19,0,0,1-38,0C78,48.41,85.94,40.32,97,40.32Zm0,29.54c5.31,0,9.66-4.76,9.66-11.08,0-6.07-4.35-10.62-9.66-10.62s-9.66,4.55-9.66,10.62C87.31,65.1,91.66,69.86,97,69.86Z" transform="translate(-0.16 -0.21)"/><path class="cls-1" d="M112.7,70.52h3l9.87-29.59h10.32l9.86,29.59h3v6.57H133.59V70.52h3.14l-1.37-4.81h-9.31l-1.36,4.81h3.13v6.57H112.7Zm20.69-11.69-1.87-6.68a20.86,20.86,0,0,1-.71-3.79h-.21a21.28,21.28,0,0,1-.7,3.79L128,58.83Z" transform="translate(-0.16 -0.21)"/><path class="cls-1" d="M76.69,70.52a2.27,2.27,0,0,1-2.33-1.17L71.58,64a5,5,0,0,0-2.23-2.17v-.1a10.61,10.61,0,0,0,5.87-9.92c0-5.31-2.88-8.85-7.23-10.17a26.76,26.76,0,0,0-7.24-.7H44.41V47.5h4.05v6.93h9.06V48h3.23a8.08,8.08,0,0,1,3.49.6c1.57.76,2,2.33,2,4,0,3.29-1.77,4.7-4.61,4.7H58.67V64.4h.67c1.87,0,2.53.4,3.13,1.56l4.4,8.45c1,2,2.18,2.68,5.11,2.68H94.21V70.52Z" transform="translate(-0.16 -0.21)"/><path class="cls-3" d="M125.55,29.6a13,13,0,0,0,1-5.27,7.37,7.37,0,0,0-3.27-6l-5.09,8.13-5.09-8.13a7.37,7.37,0,0,0-3.27,6,12.79,12.79,0,0,0,1,5.27c.37.69-.54,1.17-.44,1.55.35,1.41,2.44,2.36,2.87,2.37s.66-.58,1.33,0,0,1,.12,1.55,1.73.71,3.5.71,3.37-.31,3.5-.71-.46-1.06.12-1.55.9,0,1.33,0,2.52-1,2.87-2.37C126.09,30.77,125.18,30.29,125.55,29.6Zm-9.9.49c-1,.37-2.42.59-3,0a2.55,2.55,0,0,1,0-2.53,4.41,4.41,0,0,1,2.88-1,1.38,1.38,0,0,1,1.23,1,2.68,2.68,0,0,1,.21,1.56C116.8,29.49,116.68,29.72,115.65,30.09Zm2.52,3.43c-.65,0-1.18-.24-1.22-1.38-.06-1.39.79-2.72,1.22-2.72s1.27,1.33,1.22,2.72C119.35,33.28,118.82,33.52,118.17,33.52Zm5.5-3.43c-.56.59-2,.37-3,0s-1.16-.6-1.31-1a2.68,2.68,0,0,1,.21-1.56,1.38,1.38,0,0,1,1.23-1,4.41,4.41,0,0,1,2.88,1A2.55,2.55,0,0,1,123.67,30.09Z" transform="translate(-0.16 -0.21)"/><path class="cls-3" d="M122.71,18a8.71,8.71,0,0,0-3.77-1.19l-1,10.11,6-8Z" transform="translate(-0.16 -0.21)"/><path class="cls-3" d="M117.4,16.76A8.67,8.67,0,0,0,113.63,18l-.55.35L118.17,27l.77-10.28Z" transform="translate(-0.16 -0.21)"/><rect class="cls-1" x="132.53" y="28.14" width="32.5" height="0.95"/><rect class="cls-1" x="71.81" y="28.14" width="32.5" height="0.95"/><path class="cls-3" d="M124.38,22.1s2.18-2,1.78-6S124,10.17,124,10.17s1.07,2.31-.34,3.38-3.27.62-3.27-1.64,1.7-5,1.58-6.31-.34-2.76-1.58-3.49c0,0,.58,4-1.48,4.39s-2.4-2.31-2.4-2.31a5.13,5.13,0,0,0-.45,3c.22,1.8,1,3.49.39,4.62s-.79,1.46-1.52.68a3.71,3.71,0,0,1-.8-2.82s-2.92,2.87-2.58,5.29.56,2.36.56,3.24-1.29,1.72-1.85,0c0,0-1,3.36,2.31,4.43A5.43,5.43,0,0,0,118.17,21Z" transform="translate(-0.16 -0.21)"/><path class="cls-4" d="M187,66.6l-.27,0a19.48,19.48,0,0,1-2.1,4,18.23,18.23,0,0,0,.49,2c1,3.22,5,4.49,5,4.49S187.16,66.84,187,66.6Z" transform="translate(-0.16 -0.21)"/><path class="cls-1" d="M148.11,70.52h6.24v-23h-4V40.93h15.93a26.83,26.83,0,0,1,7.44.75c7.18,2,12.14,8.25,12.14,17.3,0,8.3-4.25,14.47-10.88,16.9a24.55,24.55,0,0,1-8.65,1.21H148.11ZM166,70a12.34,12.34,0,0,0,5.51-1c3.09-1.57,4.91-5.16,4.91-10,0-5.36-2.23-8.85-5.57-10.26A11.73,11.73,0,0,0,166,48h-2.63V70Z" transform="translate(-0.16 -0.21)"/><path class="cls-2" d="M179.84,75.2A13.6,13.6,0,0,0,182,77.09l-.21-3.3A15.21,15.21,0,0,1,179.84,75.2Z" transform="translate(-0.16 -0.21)"/><path class="cls-2" d="M187,66.6l-.27,0a19.48,19.48,0,0,1-2.1,4,18.23,18.23,0,0,0,.49,2c1,3.22,5,4.49,5,4.49S187.16,66.84,187,66.6Z" transform="translate(-0.16 -0.21)"/></svg>